<?xml version="1.0" standalone="no"?>
<!DOCTYPE svg PUBLIC "-//W3C//DTD SVG 20010904//EN"
 "http://www.w3.org/TR/2001/REC-SVG-20010904/DTD/svg10.dtd">
<svg version="1.0" xmlns="http://www.w3.org/2000/svg"
 width="558.000000pt" height="394.000000pt" viewBox="0 0 558.000000 394.000000"
 preserveAspectRatio="xMidYMid meet">

<g transform="translate(0.000000,394.000000) scale(0.100000,-0.100000)"
fill="#000000" stroke="none">
<path d="M0 1970 l0 -1970 2790 0 2790 0 0 1970 0 1970 -2790 0 -2790 0 0
-1970z m1877 1458 c60 -32 118 -102 134 -162 6 -23 9 -71 6 -108 -5 -78 -37
-136 -101 -187 -66 -53 -114 -61 -355 -61 -198 0 -219 -2 -249 -20 -67 -41
-72 -62 -72 -285 0 -182 2 -203 20 -233 21 -35 74 -72 103 -72 21 0 21 -3 2
-68 -18 -61 -28 -63 -103 -26 -56 28 -90 63 -125 128 -21 39 -22 53 -22 271 0
218 1 232 22 271 36 67 70 101 131 131 57 28 59 28 299 33 224 5 244 6 270 26
88 65 79 192 -18 249 -30 18 -54 20 -249 21 -118 0 -221 2 -227 3 -9 1 -13 21
-13 62 l0 60 248 -3 247 -3 52 -27z m2123 -107 c8 -14 -4 -89 -16 -101 -5 -5
-69 -26 -142 -49 -148 -44 -174 -57 -202 -104 -22 -36 -27 -115 -9 -150 7 -12
53 -65 103 -117 147 -152 237 -296 272 -431 31 -122 7 -309 -50 -391 -13 -18
-16 -15 -40 38 -91 199 -282 392 -491 496 -174 87 -297 108 -633 108 l-254 0
134 113 c568 478 710 592 741 597 18 3 155 4 306 4 200 -1 275 -5 281 -13z
m219 -313 l121 -117 0 -146 c0 -165 -2 -168 -70 -141 -28 11 -72 16 -138 16
l-98 0 -19 33 c-35 61 -109 152 -194 240 -70 72 -83 91 -75 104 6 10 68 34
146 58 75 23 147 49 160 58 13 9 28 15 34 14 7 -1 66 -55 133 -119z m-996
-551 c281 -87 494 -282 599 -547 50 -127 60 -192 67 -422 l6 -217 27 -28 c17
-18 55 -38 95 -51 38 -12 73 -25 79 -30 6 -4 21 -33 32 -65 l22 -57 -242 2
-242 3 -112 280 c-76 187 -121 287 -137 301 -24 20 -38 21 -403 27 l-379 6
-265 51 c-146 28 -282 54 -302 57 -42 6 -41 -3 -12 108 7 28 10 53 6 56 -15
13 -103 31 -111 23 -4 -5 -24 -74 -45 -154 -20 -80 -41 -161 -47 -181 -8 -31
-34 -57 -159 -160 -121 -99 -153 -131 -161 -159 -17 -57 6 -100 74 -135 43
-23 60 -39 76 -72 12 -24 21 -46 21 -48 0 -3 -106 -5 -235 -5 l-235 0 0 286 0
286 88 105 c146 175 136 153 143 327 5 138 8 156 33 208 52 106 133 180 240
219 48 17 94 18 721 16 l670 -2 88 -28z m-83 -1063 c6 -153 10 -162 99 -194
107 -39 112 -42 127 -78 8 -20 17 -46 20 -59 l6 -23 -239 0 -239 0 -93 233
c-52 127 -96 238 -98 245 -4 10 38 12 203 10 l209 -3 5 -131z m-663 -605 c15
-6 38 -20 51 -32 l22 -21 -42 -43 c-23 -24 -45 -43 -48 -43 -3 0 -12 15 -18
34 -19 51 -50 86 -78 86 -36 0 -48 -39 -33 -109 14 -67 28 -98 64 -134 42 -41
55 -36 55 23 0 47 -1 50 -32 59 -28 8 -19 9 50 10 l82 1 0 -95 c0 -52 -4 -95
-8 -95 -4 0 -23 16 -42 35 l-34 35 -24 -35 c-29 -41 -49 -43 -108 -14 -33 15
-49 32 -68 72 -29 57 -32 103 -12 160 18 49 38 71 90 96 45 23 90 26 133 10z
m-1009 -5 c71 -14 94 -79 46 -128 -15 -14 -33 -26 -40 -26 -8 0 -14 -4 -14
-10 0 -5 12 -10 27 -10 34 0 73 -36 73 -68 0 -32 -48 -78 -96 -91 -56 -16
-232 -15 -216 1 17 17 17 309 0 326 -9 9 10 12 89 12 55 0 114 -3 131 -6z
m304 -6 c-8 -8 -12 -59 -12 -163 0 -104 4 -155 12 -163 9 -9 -5 -12 -65 -12
-74 0 -77 1 -67 19 5 11 10 81 10 156 0 75 -5 145 -10 156 -10 18 -7 19 67 19
60 0 74 -3 65 -12z m272 -103 c94 -157 99 -163 92 -101 -7 60 -48 151 -83 189
l-27 27 67 0 67 0 0 -175 0 -175 -48 0 -49 0 -79 131 c-74 121 -79 128 -82 98
-5 -48 17 -116 53 -163 52 -69 52 -66 -14 -66 l-61 0 0 148 c0 115 -3 153 -15
168 -23 31 -19 34 48 34 l62 -1 69 -114z m976 102 c65 -22 67 -107 3 -137 -41
-19 -42 -30 -3 -30 36 0 70 -31 70 -64 0 -35 -43 -81 -88 -94 -55 -17 -240
-16 -224 0 17 17 17 309 0 326 -16 16 194 15 242 -1z m389 -149 c30 -90 56
-169 58 -175 4 -10 -13 -13 -66 -13 -65 0 -70 1 -61 18 8 12 7 28 -3 57 -13
37 -17 40 -56 43 l-43 3 7 -33 c4 -18 13 -45 20 -60 l13 -28 -68 0 -69 0 61
138 c54 125 59 140 50 175 l-9 37 56 0 56 0 54 -162z m318 33 l78 -130 3 40
c3 44 -31 129 -74 186 l-25 33 60 0 61 0 0 -176 0 -175 -47 3 -47 3 -73 119
c-91 150 -97 156 -89 89 8 -66 26 -109 71 -167 l35 -46 -60 0 -60 0 0 143 c0
124 -3 146 -20 175 l-20 32 64 0 64 0 79 -129z m340 111 c-19 -21 -25 -142 -7
-142 18 0 44 65 44 113 l0 47 70 0 71 0 -80 -81 c-44 -45 -70 -76 -58 -70 12
6 24 11 27 11 6 0 106 -194 106 -205 0 -3 -31 -5 -70 -5 -68 0 -81 5 -60 26 6
6 -3 31 -25 69 l-34 60 -1 -59 c0 -42 5 -65 17 -78 15 -17 13 -18 -67 -18 -80
0 -82 1 -67 18 25 27 25 287 0 314 -15 17 -13 18 67 18 80 0 82 -1 67 -18z"/>
<path d="M1370 700 c0 -70 2 -80 18 -80 31 0 42 22 42 80 0 58 -11 80 -42 80
-16 0 -18 -10 -18 -80z"/>
<path d="M1370 530 c0 -70 2 -80 18 -80 26 0 40 12 52 44 21 57 -6 116 -54
116 -13 0 -16 -14 -16 -80z"/>
<path d="M2900 701 c0 -73 2 -81 19 -81 26 0 42 23 47 67 6 46 -14 87 -44 91
-21 3 -22 0 -22 -77z"/>
<path d="M2900 530 c0 -71 2 -80 18 -80 39 0 57 26 57 80 0 54 -18 80 -57 80
-16 0 -18 -9 -18 -80z"/>
<path d="M3266 690 c-10 -27 -27 -113 -22 -117 2 -2 19 -3 38 -1 l35 3 -22 65
c-14 39 -25 59 -29 50z"/>
</g>
</svg>
